<svg xmlns="http://www.w3.org/2000/svg" width="148" height="40"><path fill="#282d33" d="M20 0h107.943c10.05 0 18.782 7.705 19.927 17.713 1.28 11.198-7.3 21.502-18.56 22.244-1.82.12-3.667.043-5.5.043H20.108c-9.6 0-18.063-6.95-19.785-16.42C-1.693 12.498 6.214 1.64 17.39.17 18.254.057 19.126 0 20 0c0 0-.327 0 0 0z"/><path d="M86.034 31.07c-2.205 0-1.568-3.846-1.568-5.296V22.25c0-.56-.27-1.23.364-1.23.202 0 1.105-.135 1.247 0 .06.056 0 .495 0 .57v6.566c0 .45-.2 1.8.602 1.57l.136.78c.102.6-.164.564-.78.564-.58 0 .355 0 0 0zm20.622-.518c.414.614 1.453.647 2.072.378.108-.15-.174-1-.2-1.204-.752.213-.602-.863-.602-1.308v-7.25c0-.28-.283-.15-.53-.15-.852 0-1.08-.246-1.08.583v6.45c0 .808-.12 1.805.35 2.5.233.345-.233-.345 0 0zm-51.373.2a4.78 4.78 0 003.104.106c.443-.14 1.537-.513 1.537-1.074V26.47c0-.1.074-.524-.063-.524h-3.066c-.14 0-.063 1.022-.063 1.192 0 .5 1.736-.282 1.736.343v1.673c0 .582-1.558.513-1.898.458-2-.322-2.5-2.664-2.107-4.37.47-2.1 2.844-2.997 4.454-1.452l.607-.735c.416-.503-.083-.672-.6-.974-1.392-.828-3.327-.62-4.583.378-2.535 2.017-2.24 7.07.933 8.303.528.206-.527-.205 0 0zm43.015-9.016h2.867c1.044 0 2.256.156 2.975 1.003.65.768.743 1.983.414 2.9-.694 1.955-2.884 1.884-4.595 1.884-.076 0-.037 2.742-.037 3.035 0 .442-.084.325-.536.325-.135 0-1.088.065-1.088-.05v-9.106zm1.624 4.494c.897 0 2.166.194 2.836-.544.385-.424.448-1.104.312-1.64-.195-.768-1-.958-1.687-.998-.438-.026-.88-.01-1.318-.01-.272 0-.143.428-.143.656v2.536zm-36.526 4.593c4.204 1.7 6.33-5.14 2.47-6.727-4.188-1.726-6.337 5.162-2.47 6.727.392.158-.392-.16 0 0zm8.918.237c-4.3 0-4.3-7.2 0-7.2s4.32 7.2 0 7.2c-.43 0 .43 0 0 0zm6.125 2.758c1.542.33 4.056.063 4.694-1.663.737-1.993-1.42-2.34-2.833-2.34-.478 0-1.064.073-1.518-.094-.32-.118-.445-.43-.368-.75.124-.516.4-.373.8-.305 1.78.312 4.22-1.65 2.674-3.458.163 0 1.26.044 1.26-.04 0-.293.183-1.15-.165-1.15h-1.877c-.855 0-1.596-.293-2.466-.007a2.417 2.417 0 00-1.663 2.602 2.3 2.3 0 00.878 1.521c-.005.256-.654.693-.73 1.068a1.34 1.34 0 00.347 1.214c.433.44-.18.467-.485.917-.806 1.2.346 2.248 1.463 2.485.35.075-.35-.074 0 0zm11.43-3.003c1.032.4 2.182.275 3.164-.203.4-.2.58-.18.376-.555l-.404-.747c-1.478.93-3.396.486-3.626-1.414H93.7c.365 0-.078-2.167-.167-2.4-.875-2.17-3.85-2.1-5.074-.286s-.74 4.743 1.4 5.596c.4.164-.4-.163 0 0zm21.896.245c-1.035 0-1.9-.668-2.015-1.723-.13-1.185.594-1.94 1.636-2.336a7.76 7.76 0 011.406-.369l1-.137c-.014-.25-.05-.515-.16-.742-.57-1.174-2.253-.402-3.03.07-.1-.18-.643-.905-.588-1.078.848-.538 1.816-.896 2.828-.896 1.957 0 2.562 1.534 2.562 3.25v3.507c0 .445-.23.284-.665.284-.757 0-.666-.006-.777-.756-.728.393-1.28.925-2.184.925-.607 0 .4 0 0 0zm5.53 2.625c2.706.453 3.346-2.686 4.02-4.628l1.75-5.04h-1.523c-.1 0-.318.936-.352 1.046l-1.233 4.26c-.376-.52-.495-1.47-.73-2.132l-.688-1.95c-.043-.124-.34-1.224-.46-1.224h-1.6l2.66 6.687c.1.23-.085.572-.18.784-.337.763-.97 1.057-1.768.83-.128.547-.577 1.25.1 1.365.14.024-.14-.023 0 0zm-36.792-6.34c-1.24 1.263-2.807-.924-1.694-2.037 1.252-1.252 2.795.912 1.694 2.037-.233.237.233-.24 0 0zm11.914-.54h-3.052c.277-2.086 3.052-2.293 3.052 0 0 0 0-.532 0 0zm-26.6 2.317c-.652.937-2.002.757-2.503-.22-.457-.9-.443-2.276.13-3.113.647-.945 2-.75 2.506.22.463.9.45 2.277-.133 3.112-.3.416.3-.415 0 0zm6.496.623c2.228 0 2.227-4.578 0-4.578-2.2 0-2.212 4.578 0 4.578.504 0-.504 0 0 0zm39.97.057c.53 0 1.498-.397 1.498-.997v-1.3c-.715.086-1.65.206-2.198.727-.678.643-.145 1.57.7 1.57.28 0-.3 0 0 0zm-31.1 2.75c-.705.453-1.914.475-2.646.07-.36-.198-.55-.56-.436-.967.18-.65.54-.612 1.084-.576.52.034 1.046-.016 1.568.02.922.06 1.302.9.43 1.453-.34.22.34-.22 0 0zM86.03 8.53c-.38-.43-.422-.373-.002-.752l1.052-.948.47.55-1.52 1.15zm-22.53 7.1a3.184 3.184 0 01-2.075-.757c-.372-.318.005-.48.275-.793.758.8 3.535 1.4 3.158-.48-.168-.843-1.576-1.1-2.24-1.45-1.42-.725-1.446-2.643.137-3.2.704-.245 1.512-.145 2.156.216.704.394.602.473.16 1.004-.6-.58-2.335-1.1-2.673.062-.26.894.7 1.222 1.347 1.495.813.35 1.794.686 1.96 1.685.226 1.355-.958 2.208-2.202 2.208-.46 0 .347 0 0 0zm11.6 0c-3.743 0-3.773-6.8 0-6.8 3.78 0 3.756 6.8 0 6.8-.413 0 .413 0 0 0zm38.355-.24c3.74 1.745 5.507-4.847 2.27-6.325-3.776-1.724-5.476 4.834-2.27 6.325.343.16-.343-.16 0 0zM52.9 8.94v6c0 .6-.077.56.554.56 1.007 0 2.083.094 2.96-.5 1.183-.8 1.396-2.473 1.137-3.775-.473-2.383-2.73-2.285-4.652-2.285zm6.15 0v6.552c0-.023.77.063.83.008.128-.12 0-1.087 0-1.255V9.4c0-.638-.18-.45-.83-.45zm7.97 0v6.44c0 .236.307.12.503.12.403 0 .327-.016.327-.406 0-.37-.24-1.934 0-2.194.1-.1.876 0 1.043 0 .703 0 1.484-.14 1.984-.68.528-.57.63-1.567.292-2.26-.36-.737-1.165-.96-1.924-1-.737-.047-1.486-.01-2.225-.01zm13.16 0c-.218 0-.86-.147-.86.12v5.758c0 .313-.148.682.205.682.74 0 .585-.065.585-.774L80 10.02c.37.393.587 1.067.875 1.567l2.173 3.772c.15.26.488.142.77.142.36 0 .17-1.278.17-1.585v-3.4c0-.353.216-1.585-.205-1.585-.472 0-.585-.13-.585.328v1.563l.1 3.6c-.506-.54-.884-1.593-1.278-2.28L80.18 8.94zm5.6 0c.532 0 .83-.202.83.35v4.794c0 .2.145 1.282 0 1.417a2.82 2.82 0 01-.83 0c-.035-.033 0-.306 0-.35V8.94zm2.62 0h-.9l1.897 5.926c.18.56.083.635.688.635s.508-.073.686-.635l1.88-5.926c-.23 0-.8-.136-.884.113l-.5 1.657-1.155 3.94c-.505-.783-.654-2.08-.936-3.032L88.4 8.94zm5.16 0h3.584c.37 0 .217.7.133.7h-2.065c-.48 0-.822-.195-.822.322V11.7h1.882c.075 0 .534-.06.588 0s-.014.7-.02.7h-1.882c-.74 0-.588.056-.588.8l.017 1.58h1.998c.532 0 1.036-.235 1.036.355 0 .583-.477.355-1.006.355H94.25c-.294 0-.68.155-.68-.184V8.94zm6.1 0c-1 0-.83.01-.83.952v3.67l.014 1.938h3.108c.28 0 .578.13.578-.184 0-.585.04-.526-.524-.526-.34 0-2.346.165-2.346-.136V8.94zm6.03 0c.643 0 .8-.124 1.094.407l1.245 2.164c.48.836 1.007 2.234 1.642 2.9l-.1-3.6V9.27c0-.458.113-.328.585-.328.42 0 .205 1.232.205 1.585v3.4c0 .307.2 1.585-.17 1.585-.283 0-.62.12-.77-.142l-2.173-3.772c-.288-.5-.504-1.174-.875-1.567.117 1.452.1 2.893.1 4.348 0 .138.07 1.132-.06 1.132-.414 0-.73.18-.73-.26l.017-6.3zM75.1 14.9c2.627 0 2.656-5.34 0-5.34s-2.628 5.34 0 5.34c.294 0-.293 0 0 0zm40.285-.2c-2.66 1.423-3.75-3.837-1.6-4.965 2.705-1.406 3.723 3.822 1.6 4.965-.237.127.237-.127 0 0zM68.83 12.22c-.765 0-.98.216-.98-.564 0-.343-.224-1.8 0-2.046.085-.094.757 0 .9 0 .484 0 1.13.025 1.492.402s.362 1.118.13 1.563c-.287.55-.983.645-1.54.645zm-14.35 2.6c-.17 0-.75.1-.75-.087v-4.78c0-.976 2.276-.002 2.627.53 1.096 1.654.28 4.34-1.877 4.34z" fill="#fff"/><path fill="#00d6ff" d="M27.673 9.397c-.595.212-.4 1.246-.4 1.73v18.86c0 1.242.844.18 1.13-.106l9.93-9.884-10.648-10.6c-.23.082 0 0 0 0z"/><path fill="#00f076" d="M41.323 17.01l-11.285-6.493c-.478-.275-1.738-1.336-2.366-1.12l10.59 10.54c.13.13 2.715-2.58 3.062-2.926z"/><path fill="#ff3a44" d="M28.175 30.557l13.153-7.566-3.046-2.954-10.615 10.565c.175.06.345.045.508-.045"/><path fill="#ffd000" d="M41.328 23l3.545-2.04c.412-.237 1.22-.527 1.003-1.15-.16-.463-1.055-.778-1.43-.994-.366-.2-2.95-1.967-3.196-1.72l-2.928 2.914L41.328 23z"/></svg>