<svg xmlns="http://www.w3.org/2000/svg" width="148" height="40"><path fill="#282d33" d="M20 0h107.943c10.054 0 18.776 7.705 19.928 17.713 1.29 11.197-7.316 21.502-18.56 22.244-1.82.12-3.667.043-5.5.043H20.108C10.514 40 2.05 33.05.323 23.58-1.7 12.5 6.218 1.64 17.39.17 18.254.057 19.126 0 20 0c0 0-.327 0 0 0z"/><path d="M83.955 30.72c1.6.655 4.03.466 4.852-1.316.763-1.68-.37-3.006-1.853-3.623-.818-.34-3.352-1.068-2.253-2.345.526-.6 1.62-.527 2.286-.234.25.1.844.675 1 .466l.562-.705c.418-.524-.958-1.037-1.395-1.184-.884-.296-1.897-.28-2.753.102-1.826.812-2.105 3.265-.384 4.358.873.56 2.732.817 3.233 1.764.395.735-.216 1.456-.924 1.6-1.07.218-2.173-.254-2.946-.984l-.78.904c-.407.473.94 1.033 1.344 1.197.574.234-.574-.233 0 0zm-25.5-8.974l-2.98 9.156h1.546c.247 0 .35-.845.4-1.054.072-.25.195-1.275.4-1.424.25-.175 1.24 0 1.54 0h1.524c.086 0 .34 1.13.373 1.24.036.126.275 1.24.386 1.24h1.68l-2.905-8.92c-.175-.537-1.477-.236-1.98-.236zM92.98 31.07c-2.07 0-2.185-1.86-2.185-3.46v-1.967c0-.54-.316-.34-.826-.34-.316 0-.153-.9-.153-1.17 0-.18 1.044.083 1.073-.195l.177-1.693c.022-.2 1.096-.1 1.322-.1.066 0 .03 1.252.03 1.4 0 .623.065.486.7.486.43 0 1.06-.225 1.06.275 0 .716.23 1-.5 1-.158 0-1.24-.072-1.24.06v1.677c0 1.115-.224 3.45 1.68 2.6l.22.933c.128.543-.916.507-1.34.507-.403 0 .27 0 0 0zm-34.763-3.92l1.134-4.144c.42.703.54 1.883.793 2.73l.412 1.413h-2.34zm6.118-3.122v9.54c0 .106 1.323.05 1.507.05.23 0 .078-2.85.062-3.304.985.856 2.305 1.016 3.37.198 1.052-.8 1.386-2.198 1.326-3.465-.054-1.137-.46-2.405-1.553-2.942-1.282-.634-2.195.097-3.27.65-.036-.234.022-.728-.25-.728h-1.192zm7.896 9.6v-9.4c0-.35.353-.188.665-.188.745 0 .664-.007.776.728 1.006-.52 1.78-1.182 3.012-.758 1.266.436 1.753 1.822 1.8 3.05.056 1.172-.22 2.435-1.1 3.27-1.06 1.006-2.523.926-3.597-.004l.042 2.508c0 .34.174.795-.218.795h-1.4zm24.96-2.785c4.205 1.7 6.333-5.14 2.472-6.727-4.187-1.728-6.336 5.16-2.472 6.727.393.158-.4-.16 0 0zm6.105-6.805c.234 0 1.178-.146 1.33 0s.1 1 .112 1.218c.76-.724 1.272-1.66 2.568-1.323.427.1.012 1.1-.062 1.478-.858-.263-2.338.234-2.338 1.35v4.05c0 .23-1.26.104-1.508.104-.208-.001-.102-6.118-.102-6.875zm6.832 6.797c1.033.4 2.182.275 3.164-.203.4-.2.58-.18.377-.555l-.405-.747c-1.477.93-3.396.487-3.625-1.414h4.32c.366 0-.077-2.167-.167-2.4-.877-2.17-3.848-2.1-5.074-.286s-.74 4.744 1.4 5.596c.4.164-.4-.163 0 0zm2.548-4h-3.052c.28-2.085 3.052-2.294 3.052 0 0 0 0-.532 0 0zM99.614 29.13c-.653.936-2 .758-2.503-.22-.457-.9-.442-2.275.13-3.113.646-.945 2.002-.75 2.505.22.464.9.45 2.277-.132 3.112-.3.416.3-.415 0 0zm-31.135.015c-.495.636-2.535.924-2.535-.2v-2.52c0-1.014 1.46-1.58 2.297-1.03 1.017.67.906 2.886.238 3.75-.3.396.307-.397 0 0zm6.748.594c2.8 0 1.746-6.85-1.387-3.78-.217.48 0 1.553 0 2.078v1c0 .468 1.033.7 1.387.7.457 0-.206 0 0 0zM89.53 8.53c-.38-.43-.422-.373-.002-.752l1.052-.948.47.55-1.52 1.15zM67 15.62a3.184 3.184 0 01-2.075-.757c-.37-.318.006-.48.275-.793.758.8 3.535 1.4 3.158-.48-.168-.843-1.576-1.1-2.24-1.45-1.42-.725-1.446-2.643.137-3.2.704-.245 1.512-.145 2.156.216.703.393.6.474.16 1.004-.6-.58-2.335-1.1-2.673.062-.26.893.712 1.222 1.347 1.495.813.35 1.794.686 1.96 1.685.226 1.355-.96 2.208-2.203 2.208-.46 0 .347 0 0 0zm11.6 0c-3.742 0-3.772-6.8 0-6.8 3.78 0 3.756 6.8 0 6.8-.413 0 .414 0 0 0zM56.4 8.94v6c0 .6-.077.56.554.56 1.007 0 2.083.095 2.96-.5 1.182-.8 1.396-2.473 1.138-3.775-.472-2.38-2.728-2.285-4.652-2.285zm6.15 0v6.552c0-.023.77.063.83.008.128-.12 0-1.087 0-1.255V9.4c0-.638-.18-.45-.83-.45zm7.97 0v6.44c0 .236.307.12.503.12.403 0 .327-.016.327-.406 0-.37-.24-1.934 0-2.194.1-.1.876 0 1.043 0 .704 0 1.484-.14 1.985-.68.528-.57.63-1.568.292-2.26-.36-.737-1.165-.96-1.923-1-.74-.048-1.488-.01-2.227-.01zm13.16 0c-.218 0-.86-.147-.86.12v5.758c0 .312-.147.682.205.682.738 0 .584-.066.584-.774l-.1-4.706c.37.393.587 1.067.875 1.567l2.173 3.772c.15.26.488.142.77.142.36 0 .17-1.278.17-1.585v-3.4c0-.353.216-1.585-.205-1.585-.472 0-.585-.13-.585.328v1.563l.1 3.6c-.506-.54-.884-1.593-1.28-2.28L83.68 8.94zm5.6 0c.532 0 .83-.202.83.35v4.794c0 .2.145 1.282 0 1.417a2.82 2.82 0 01-.83 0c-.035-.033 0-.306 0-.35V8.94zm2.62 0H91l1.897 5.926c.18.56.083.635.688.635s.508-.073.686-.635l1.88-5.926c-.23 0-.8-.136-.883.113l-.492 1.657-1.154 3.94c-.508-.774-.655-2.083-.937-3.032L91.9 8.94zm5.16 0h3.583c.37 0 .217.7.133.7h-2.064c-.482 0-.822-.195-.822.322V11.7h1.882c.075 0 .534-.06.588 0s-.014.7-.02.7h-1.882c-.74 0-.588.056-.588.8l.017 1.58h1.998c.532 0 1.036-.235 1.036.355 0 .583-.477.355-1.006.355h-2.193c-.294 0-.68.155-.68-.184V8.94zm6.1 0c-1 0-.83.01-.83.952v3.67l.014 1.938h3.108c.28 0 .578.13.578-.184 0-.585.04-.526-.524-.526-.34 0-2.346.165-2.346-.136V8.94zm6.03 0c.643 0 .8-.124 1.094.407l1.244 2.164c.484.842 1.006 2.224 1.64 2.9l-.1-3.6V9.27c0-.458.113-.328.585-.328.42 0 .205 1.232.205 1.585v3.4c0 .307.2 1.585-.17 1.585-.283 0-.62.12-.77-.142l-2.173-3.772c-.288-.5-.504-1.174-.875-1.567.115 1.453.1 2.893.1 4.348 0 .138.07 1.132-.06 1.132-.414 0-.73.18-.73-.26v-6.3zm8.76 0c-.534 0-.876-.2-1.05.325l-2.1 6.235c.116 0 .832.06.857-.022l.367-1.164c.026-.083.197-.813.278-.813h2.346c.08 0 .248.73.273.813l.36 1.164c.025.083.776.022.896.022l-2.218-6.56zM78.6 14.9c2.628 0 2.656-5.34 0-5.34s-2.627 5.34 0 5.34c.294 0-.293 0 0 0zm-6.27-2.67c-.765 0-.98.216-.98-.564 0-.343-.224-1.8 0-2.046.085-.094.758 0 .9 0 .484 0 1.13.025 1.492.402s.362 1.118.13 1.563c-.288.55-.984.645-1.54.645zm-14.35 2.6c-.17 0-.75.1-.75-.087v-4.78c0-.976 2.275-.002 2.627.53 1.095 1.653.28 4.34-1.877 4.34zm60.48-2h-1.97l.96-3.2c.46.93.687 2.168 1 3.2zM49.685 25.342c-.897 2-2.1 4.383-3.998 5.6-1.938 1.242-3.72-.592-5.752-.464-.998.063-1.77.55-2.698.827-1.063.318-2.096-.012-2.932-.7-1.984-1.636-3.3-4.4-3.907-6.843-.5-2.055-.595-4.418.345-6.37 1.017-2.112 3.37-3.742 5.767-3.428 1.112.146 2.103.727 3.206.895.976.15 1.812-.208 2.7-.53 2.47-.886 4.95-.135 6.594 1.9-3.7 2.025-3.27 7.616.666 9.102M43.06 12.28c.808-1.037 1.312-2.388 1.112-3.712-1.884.13-3.6 1.535-4.32 3.23a4.32 4.32 0 00-.37 1.605c-.016.796.277.734.98.568 1.017-.24 1.96-.868 2.6-1.7" fill="#fff"/></svg>